<mxfile host="app.diagrams.net" modified="2024-03-07T10:22:11.661Z" agent="Mozilla/5.0 (Windows NT 10.0; Win64; x64) AppleWebKit/537.36 (KHTML, like Gecko) Chrome/122.0.0.0 Safari/537.36" etag="LCuuhOrk7lN_prQylnWF" version="24.0.2" type="github">
  <diagram name="第 1 页" id="fPZz5qyUAcwzP-gCks3v">
    <mxGraphModel dx="6536" dy="3764" grid="0" gridSize="10" guides="1" tooltips="1" connect="1" arrows="1" fold="1" page="0" pageScale="1" pageWidth="1400" pageHeight="850" math="0" shadow="0">
      <root>
        <mxCell id="0" />
        <mxCell id="1" parent="0" />
        <mxCell id="h_AN93wbB_SeEJOG6E0W-5" value="&lt;font style=&quot;font-size: 48px;&quot;&gt;管理者&lt;/font&gt;" style="shape=umlActor;verticalLabelPosition=bottom;verticalAlign=top;html=1;strokeWidth=6;" vertex="1" parent="1">
          <mxGeometry x="-466" width="121" height="238" as="geometry" />
        </mxCell>
        <mxCell id="h_AN93wbB_SeEJOG6E0W-7" value="&lt;font style=&quot;font-size: 48px;&quot;&gt;城市级管理者&lt;/font&gt;" style="shape=umlActor;verticalLabelPosition=bottom;verticalAlign=top;html=1;strokeWidth=6;" vertex="1" parent="1">
          <mxGeometry x="65" y="-238" width="121" height="238" as="geometry" />
        </mxCell>
        <mxCell id="h_AN93wbB_SeEJOG6E0W-8" value="&lt;font style=&quot;font-size: 48px;&quot;&gt;门店级管理者&lt;/font&gt;" style="shape=umlActor;verticalLabelPosition=bottom;verticalAlign=top;html=1;strokeWidth=6;" vertex="1" parent="1">
          <mxGeometry x="54" y="256" width="121" height="238" as="geometry" />
        </mxCell>
        <mxCell id="h_AN93wbB_SeEJOG6E0W-10" value="" style="shape=curlyBracket;whiteSpace=wrap;html=1;rounded=1;labelPosition=left;verticalLabelPosition=middle;align=right;verticalAlign=middle;strokeWidth=4;" vertex="1" parent="1">
          <mxGeometry x="-218" y="-89" width="134" height="478" as="geometry" />
        </mxCell>
        <mxCell id="h_AN93wbB_SeEJOG6E0W-33" style="rounded=1;orthogonalLoop=1;jettySize=auto;html=1;exitX=0;exitY=0.3333333333333333;exitDx=0;exitDy=0;exitPerimeter=0;entryX=1;entryY=0.5;entryDx=0;entryDy=0;strokeWidth=8;startArrow=none;startFill=0;endArrow=none;endFill=0;" edge="1" parent="1" source="h_AN93wbB_SeEJOG6E0W-11" target="h_AN93wbB_SeEJOG6E0W-16">
          <mxGeometry relative="1" as="geometry" />
        </mxCell>
        <mxCell id="h_AN93wbB_SeEJOG6E0W-34" style="rounded=1;orthogonalLoop=1;jettySize=auto;html=1;exitX=0;exitY=0.3333333333333333;exitDx=0;exitDy=0;exitPerimeter=0;entryX=1;entryY=0.5;entryDx=0;entryDy=0;strokeWidth=8;startArrow=none;startFill=0;endArrow=none;endFill=0;" edge="1" parent="1" source="h_AN93wbB_SeEJOG6E0W-11" target="h_AN93wbB_SeEJOG6E0W-20">
          <mxGeometry relative="1" as="geometry" />
        </mxCell>
        <mxCell id="h_AN93wbB_SeEJOG6E0W-36" style="rounded=1;orthogonalLoop=1;jettySize=auto;html=1;exitX=0;exitY=0.3333333333333333;exitDx=0;exitDy=0;exitPerimeter=0;entryX=1;entryY=0;entryDx=0;entryDy=0;strokeWidth=8;startArrow=none;startFill=0;endArrow=none;endFill=0;" edge="1" parent="1" source="h_AN93wbB_SeEJOG6E0W-11" target="h_AN93wbB_SeEJOG6E0W-18">
          <mxGeometry relative="1" as="geometry" />
        </mxCell>
        <mxCell id="h_AN93wbB_SeEJOG6E0W-37" style="rounded=1;orthogonalLoop=1;jettySize=auto;html=1;exitX=0;exitY=0.3333333333333333;exitDx=0;exitDy=0;exitPerimeter=0;entryX=1;entryY=0.5;entryDx=0;entryDy=0;strokeWidth=8;startArrow=none;startFill=0;endArrow=none;endFill=0;" edge="1" parent="1" source="h_AN93wbB_SeEJOG6E0W-11" target="h_AN93wbB_SeEJOG6E0W-19">
          <mxGeometry relative="1" as="geometry" />
        </mxCell>
        <mxCell id="h_AN93wbB_SeEJOG6E0W-38" style="rounded=1;orthogonalLoop=1;jettySize=auto;html=1;exitX=0;exitY=0.3333333333333333;exitDx=0;exitDy=0;exitPerimeter=0;entryX=1;entryY=1;entryDx=0;entryDy=0;strokeWidth=8;startArrow=none;startFill=0;endArrow=none;endFill=0;" edge="1" parent="1" source="h_AN93wbB_SeEJOG6E0W-11" target="h_AN93wbB_SeEJOG6E0W-14">
          <mxGeometry relative="1" as="geometry" />
        </mxCell>
        <mxCell id="h_AN93wbB_SeEJOG6E0W-11" value="&lt;font style=&quot;font-size: 48px;&quot;&gt;城市级管理者&lt;/font&gt;" style="shape=umlActor;verticalLabelPosition=bottom;verticalAlign=top;html=1;strokeWidth=6;" vertex="1" parent="1">
          <mxGeometry x="2446" y="522" width="121" height="238" as="geometry" />
        </mxCell>
        <mxCell id="h_AN93wbB_SeEJOG6E0W-39" style="rounded=1;orthogonalLoop=1;jettySize=auto;html=1;exitX=1;exitY=0.3333333333333333;exitDx=0;exitDy=0;exitPerimeter=0;entryX=0;entryY=0.5;entryDx=0;entryDy=0;curved=0;strokeWidth=8;endArrow=none;endFill=0;" edge="1" parent="1" source="h_AN93wbB_SeEJOG6E0W-12" target="h_AN93wbB_SeEJOG6E0W-20">
          <mxGeometry relative="1" as="geometry" />
        </mxCell>
        <mxCell id="h_AN93wbB_SeEJOG6E0W-40" style="rounded=1;orthogonalLoop=1;jettySize=auto;html=1;exitX=1;exitY=0.3333333333333333;exitDx=0;exitDy=0;exitPerimeter=0;entryX=0;entryY=0.5;entryDx=0;entryDy=0;curved=0;strokeWidth=8;endArrow=none;endFill=0;" edge="1" parent="1" source="h_AN93wbB_SeEJOG6E0W-12" target="h_AN93wbB_SeEJOG6E0W-26">
          <mxGeometry relative="1" as="geometry" />
        </mxCell>
        <mxCell id="h_AN93wbB_SeEJOG6E0W-41" style="rounded=1;orthogonalLoop=1;jettySize=auto;html=1;exitX=1;exitY=0.3333333333333333;exitDx=0;exitDy=0;exitPerimeter=0;entryX=0;entryY=0.5;entryDx=0;entryDy=0;curved=0;strokeWidth=8;endArrow=none;endFill=0;" edge="1" parent="1" source="h_AN93wbB_SeEJOG6E0W-12" target="h_AN93wbB_SeEJOG6E0W-18">
          <mxGeometry relative="1" as="geometry" />
        </mxCell>
        <mxCell id="h_AN93wbB_SeEJOG6E0W-43" style="rounded=1;orthogonalLoop=1;jettySize=auto;html=1;exitX=1;exitY=0.3333333333333333;exitDx=0;exitDy=0;exitPerimeter=0;entryX=0;entryY=0.5;entryDx=0;entryDy=0;curved=0;strokeWidth=8;endArrow=none;endFill=0;" edge="1" parent="1" source="h_AN93wbB_SeEJOG6E0W-12" target="h_AN93wbB_SeEJOG6E0W-15">
          <mxGeometry relative="1" as="geometry" />
        </mxCell>
        <mxCell id="h_AN93wbB_SeEJOG6E0W-44" style="rounded=1;orthogonalLoop=1;jettySize=auto;html=1;exitX=1;exitY=0.3333333333333333;exitDx=0;exitDy=0;exitPerimeter=0;entryX=0;entryY=0.5;entryDx=0;entryDy=0;curved=0;strokeWidth=8;endArrow=none;endFill=0;" edge="1" parent="1" source="h_AN93wbB_SeEJOG6E0W-12" target="h_AN93wbB_SeEJOG6E0W-27">
          <mxGeometry relative="1" as="geometry" />
        </mxCell>
        <mxCell id="h_AN93wbB_SeEJOG6E0W-45" style="rounded=1;orthogonalLoop=1;jettySize=auto;html=1;exitX=1;exitY=0.3333333333333333;exitDx=0;exitDy=0;exitPerimeter=0;entryX=0;entryY=0;entryDx=0;entryDy=0;curved=0;strokeWidth=8;endArrow=none;endFill=0;" edge="1" parent="1" source="h_AN93wbB_SeEJOG6E0W-12" target="h_AN93wbB_SeEJOG6E0W-17">
          <mxGeometry relative="1" as="geometry" />
        </mxCell>
        <mxCell id="h_AN93wbB_SeEJOG6E0W-12" value="&lt;font style=&quot;font-size: 48px;&quot;&gt;门店级管理者&lt;/font&gt;" style="shape=umlActor;verticalLabelPosition=bottom;verticalAlign=top;html=1;strokeWidth=6;" vertex="1" parent="1">
          <mxGeometry x="273" y="1123" width="121" height="238" as="geometry" />
        </mxCell>
        <mxCell id="h_AN93wbB_SeEJOG6E0W-14" value="&lt;font style=&quot;font-size: 61px;&quot;&gt;关键过程&lt;/font&gt;&lt;div style=&quot;font-size: 61px;&quot;&gt;&lt;font style=&quot;font-size: 61px;&quot;&gt;（城市级）&lt;/font&gt;&lt;/div&gt;" style="ellipse;whiteSpace=wrap;html=1;strokeWidth=4;fontStyle=1;fontSize=61;" vertex="1" parent="1">
          <mxGeometry x="1396" y="-67" width="411" height="197" as="geometry" />
        </mxCell>
        <mxCell id="h_AN93wbB_SeEJOG6E0W-15" value="&lt;span style=&quot;font-size: 61px;&quot;&gt;资源管理&lt;/span&gt;&lt;div style=&quot;font-size: 61px;&quot;&gt;&lt;span style=&quot;font-size: 61px;&quot;&gt;（门店级）&lt;/span&gt;&lt;/div&gt;" style="ellipse;whiteSpace=wrap;html=1;strokeWidth=4;fontStyle=1;fontSize=61;" vertex="1" parent="1">
          <mxGeometry x="1410" y="1912" width="411" height="197" as="geometry" />
        </mxCell>
        <mxCell id="h_AN93wbB_SeEJOG6E0W-16" value="&lt;span style=&quot;font-size: 61px;&quot;&gt;资源管理&lt;/span&gt;&lt;br style=&quot;font-size: 61px;&quot;&gt;&lt;div style=&quot;font-size: 61px;&quot;&gt;&lt;font style=&quot;font-size: 61px;&quot;&gt;（城市级）&lt;/font&gt;&lt;/div&gt;" style="ellipse;whiteSpace=wrap;html=1;strokeWidth=4;fontStyle=1;fontSize=61;" vertex="1" parent="1">
          <mxGeometry x="1104" y="161" width="411" height="197" as="geometry" />
        </mxCell>
        <mxCell id="h_AN93wbB_SeEJOG6E0W-17" value="&lt;span style=&quot;font-size: 61px;&quot;&gt;待办管理&lt;/span&gt;&lt;div style=&quot;font-size: 61px;&quot;&gt;&lt;span style=&quot;font-size: 61px;&quot;&gt;（门店级）&lt;/span&gt;&lt;/div&gt;" style="ellipse;whiteSpace=wrap;html=1;strokeWidth=4;fontStyle=1;fontSize=61;" vertex="1" parent="1">
          <mxGeometry x="982" y="2546" width="411" height="197" as="geometry" />
        </mxCell>
        <mxCell id="h_AN93wbB_SeEJOG6E0W-18" value="&lt;span style=&quot;font-size: 61px;&quot;&gt;业绩分析&lt;/span&gt;" style="ellipse;whiteSpace=wrap;html=1;strokeWidth=4;fontStyle=1;fontSize=61;" vertex="1" parent="1">
          <mxGeometry x="1144" y="1105" width="411" height="197" as="geometry" />
        </mxCell>
        <mxCell id="h_AN93wbB_SeEJOG6E0W-19" value="&lt;span style=&quot;font-size: 61px;&quot;&gt;关注数据&lt;/span&gt;" style="ellipse;whiteSpace=wrap;html=1;strokeWidth=4;fontStyle=1;fontSize=61;" vertex="1" parent="1">
          <mxGeometry x="1191" y="1533" width="411" height="197" as="geometry" />
        </mxCell>
        <mxCell id="h_AN93wbB_SeEJOG6E0W-20" value="&lt;span style=&quot;font-size: 61px;&quot;&gt;今日日报&lt;/span&gt;" style="ellipse;whiteSpace=wrap;html=1;strokeWidth=4;fontStyle=1;fontSize=61;" vertex="1" parent="1">
          <mxGeometry x="1015" y="498" width="411" height="197" as="geometry" />
        </mxCell>
        <mxCell id="h_AN93wbB_SeEJOG6E0W-25" value="&lt;span style=&quot;font-size: 61px;&quot;&gt;待办管理&lt;/span&gt;&lt;br style=&quot;font-size: 61px;&quot;&gt;&lt;div style=&quot;font-size: 61px;&quot;&gt;&lt;font style=&quot;font-size: 61px;&quot;&gt;（城市级）&lt;/font&gt;&lt;/div&gt;" style="ellipse;whiteSpace=wrap;html=1;strokeWidth=4;fontStyle=1;fontSize=61;" vertex="1" parent="1">
          <mxGeometry x="1852" y="-215" width="411" height="197" as="geometry" />
        </mxCell>
        <mxCell id="h_AN93wbB_SeEJOG6E0W-26" value="&lt;span style=&quot;font-size: 61px;&quot;&gt;业绩进展&lt;/span&gt;" style="ellipse;whiteSpace=wrap;html=1;strokeWidth=4;fontStyle=1;fontSize=61;" vertex="1" parent="1">
          <mxGeometry x="1064" y="790" width="411" height="197" as="geometry" />
        </mxCell>
        <mxCell id="h_AN93wbB_SeEJOG6E0W-27" value="&lt;font style=&quot;font-size: 61px;&quot;&gt;关键过程&lt;/font&gt;&lt;div style=&quot;font-size: 61px;&quot;&gt;&lt;font style=&quot;font-size: 61px;&quot;&gt;（门店级）&lt;/font&gt;&lt;/div&gt;" style="ellipse;whiteSpace=wrap;html=1;strokeWidth=4;fontStyle=1;fontSize=61;" vertex="1" parent="1">
          <mxGeometry x="1356" y="2246" width="411" height="197" as="geometry" />
        </mxCell>
        <mxCell id="h_AN93wbB_SeEJOG6E0W-28" style="rounded=1;orthogonalLoop=1;jettySize=auto;html=1;exitX=0;exitY=0.3333333333333333;exitDx=0;exitDy=0;exitPerimeter=0;entryX=0.954;entryY=0.848;entryDx=0;entryDy=0;entryPerimeter=0;endArrow=none;endFill=0;strokeWidth=8;startArrow=none;startFill=0;" edge="1" parent="1" source="h_AN93wbB_SeEJOG6E0W-11" target="h_AN93wbB_SeEJOG6E0W-25">
          <mxGeometry relative="1" as="geometry" />
        </mxCell>
        <mxCell id="h_AN93wbB_SeEJOG6E0W-35" style="rounded=1;orthogonalLoop=1;jettySize=auto;html=1;exitX=0;exitY=0.3333333333333333;exitDx=0;exitDy=0;exitPerimeter=0;entryX=0.779;entryY=0.071;entryDx=0;entryDy=0;entryPerimeter=0;strokeWidth=8;startArrow=none;startFill=0;endArrow=none;endFill=0;" edge="1" parent="1" source="h_AN93wbB_SeEJOG6E0W-11" target="h_AN93wbB_SeEJOG6E0W-26">
          <mxGeometry relative="1" as="geometry" />
        </mxCell>
        <mxCell id="h_AN93wbB_SeEJOG6E0W-42" style="rounded=1;orthogonalLoop=1;jettySize=auto;html=1;exitX=1;exitY=0.3333333333333333;exitDx=0;exitDy=0;exitPerimeter=0;entryX=0.012;entryY=0.381;entryDx=0;entryDy=0;entryPerimeter=0;curved=0;strokeWidth=8;endArrow=none;endFill=0;" edge="1" parent="1" source="h_AN93wbB_SeEJOG6E0W-12" target="h_AN93wbB_SeEJOG6E0W-19">
          <mxGeometry relative="1" as="geometry" />
        </mxCell>
      </root>
    </mxGraphModel>
  </diagram>
</mxfile>
